# xmcd
#
# Track frame offsets:
#	150
#	17673
#	30633
#	43155
#	64927
#	77718
#	92453
#	108053
#	126119
#	139974
#	153980
#	174182
#	191580
#	206754
#	219328
#	242686
#
# Disc length: 3378 seconds
#
# Revision: 0
# Processed by: cddbd v1.5.2PL0 Copyright (c) Steve Scherf et al.
# Submitted via: EasyCDDAExtractor 2010.4.0.0
#
DISCID=d10d3010
DTITLE=Imelda May - Mayhem
DYEAR=2010
DGENRE=
TTITLE0=Pulling The Rug
TTITLE1=Psycho - Album Version
TTITLE2=Mayhem - Album Version
TTITLE3=Kentish Town Waltz
TTITLE4=All For You
TTITLE5=Eternity
TTITLE6=Inside Out
TTITLE7=Proud And Humble
TTITLE8=Sneaky Freak
TTITLE9=Bury My Troubles
TTITLE10=Too Sad To Cry
TTITLE11=I'm Alive
TTITLE12=Let Me Out
TTITLE13=Tainted Love
TTITLE14=Johnny Got A Boom Boom - Radio Edit
TTITLE15=Bonus data
EXTD=
EXTT0=
EXTT1=
EXTT2=
EXTT3=
EXTT4=
EXTT5=
EXTT6=
EXTT7=
EXTT8=
EXTT9=
EXTT10=
EXTT11=
EXTT12=
EXTT13=
EXTT14=
EXTT15=
PLAYORDER=
